<?xml version="1.0" standalone="no"?>
<!DOCTYPE svg PUBLIC "-//W3C//DTD SVG 20010904//EN"
 "http://www.w3.org/TR/2001/REC-SVG-20010904/DTD/svg10.dtd">
<svg version="1.0" xmlns="http://www.w3.org/2000/svg"
 width="1280.000000pt" height="1048.000000pt" viewBox="0 0 1280.000000 1048.000000"
 preserveAspectRatio="xMidYMid meet">
<metadata>
Created by potrace 1.15, written by Peter Selinger 2001-2017
</metadata>
<g transform="translate(0.000000,1048.000000) scale(0.100000,-0.100000)"
fill="#FFFFFF" stroke="none">
<path d="M3993 10411 c-147 -130 -306 -307 -400 -442 -73 -107 -140 -238 -232
-454 -97 -230 -127 -330 -142 -477 -13 -126 -7 -485 11 -588 17 -102 39 -170
55 -170 27 0 33 50 45 370 11 319 26 426 95 663 61 212 138 360 327 630 150
215 305 377 362 377 24 0 162 -127 216 -199 65 -87 161 -279 204 -411 18 -58
44 -163 56 -235 49 -285 148 -545 283 -740 68 -99 125 -143 196 -152 59 -8 54
10 -29 121 -48 64 -100 156 -170 297 -99 203 -100 205 -120 334 -38 243 -57
330 -95 430 -55 147 -138 317 -190 391 -79 110 -330 324 -381 324 -8 0 -49
-31 -91 -69z"/>
<path d="M5821 9233 c-6 -21 -27 -180 -46 -353 -20 -173 -38 -323 -41 -332 -3
-10 -19 -20 -37 -22 -117 -19 -152 -27 -161 -36 -18 -18 5 -25 97 -30 l92 -5
-3 -40 c-4 -41 -17 -84 -126 -400 -36 -104 -66 -205 -66 -224 0 -35 0 -35 19
-16 54 56 188 377 236 564 13 51 28 98 33 103 20 20 235 -19 384 -70 287 -99
495 -199 641 -309 65 -50 68 -62 33 -131 -40 -80 -96 -231 -131 -351 -49 -170
-58 -290 -18 -238 6 6 61 138 123 292 62 154 118 286 125 293 15 17 52 3 112
-43 75 -57 114 -42 69 26 -15 22 -49 62 -76 90 -41 42 -48 54 -41 72 29 76
191 360 296 519 68 103 125 194 127 204 7 40 -25 19 -94 -63 -151 -178 -254
-328 -357 -515 -24 -43 -48 -78 -54 -78 -7 0 -44 26 -84 58 -148 118 -327 205
-562 271 -150 43 -238 59 -381 69 l-95 7 1 35 c0 19 6 125 13 235 20 334 6
542 -28 418z"/>
<path d="M4501 8583 c-93 -136 -167 -176 -360 -194 -133 -12 -183 -27 -295
-86 -138 -74 -128 -96 18 -44 78 28 224 56 416 81 191 25 300 125 312 285 5
70 -23 57 -91 -42z"/>
<path d="M5341 8443 c-28 -54 -42 -427 -18 -507 15 -49 34 -57 44 -19 13 45
10 505 -3 527 -11 19 -12 19 -23 -1z"/>
<path d="M4867 8423 c-13 -12 -7 -41 28 -158 41 -136 100 -292 120 -319 26
-35 32 -8 19 88 -26 186 -43 241 -111 344 -34 51 -43 58 -56 45z"/>
<path d="M8735 8420 c-283 -22 -509 -63 -651 -120 -247 -98 -634 -360 -634
-428 0 -12 6 -22 13 -22 6 0 66 30 132 66 374 206 543 269 890 333 190 35 262
41 550 48 419 9 406 26 299 -392 -75 -296 -155 -513 -262 -710 -90 -167 -230
-302 -497 -479 -93 -62 -177 -121 -185 -130 -23 -29 12 -49 72 -42 62 7 119
32 226 102 325 212 587 542 698 880 36 111 92 384 125 609 19 130 19 146 5
179 -19 44 -86 79 -186 96 -89 15 -448 21 -595 10z"/>
<path d="M2940 7970 c-95 -49 -363 -340 -568 -614 -115 -155 -236 -427 -270
-606 -76 -395 -73 -572 13 -819 91 -260 248 -524 430 -719 72 -78 236 -221
325 -283 71 -50 278 -161 380 -204 146 -62 378 -111 402 -87 8 8 4 14 -13 21
-220 91 -348 149 -398 179 -101 60 -216 157 -392 332 -211 210 -328 380 -443
640 -97 218 -145 404 -153 596 -7 160 11 275 67 444 71 211 129 330 326 663
110 184 177 278 270 377 73 77 83 111 24 80z"/>
<path d="M7016 7668 c-46 -47 -85 -99 -109 -144 -39 -76 -70 -176 -60 -199 10
-27 31 -16 47 25 9 22 59 112 111 200 53 88 98 166 101 175 13 34 -22 11 -90
-57z"/>
<path d="M4920 7640 c-113 -11 -154 -26 -285 -97 -147 -81 -155 -87 -155 -129
0 -50 55 -212 91 -269 38 -59 133 -153 183 -180 72 -39 63 -9 -59 195 -89 148
-115 199 -110 217 13 54 210 163 320 178 62 8 187 -16 266 -52 55 -24 129 -87
117 -98 -3 -4 -39 -7 -79 -9 -53 -1 -86 -8 -116 -24 -83 -43 -143 -112 -143
-163 0 -51 42 -161 76 -198 55 -61 156 -76 237 -34 15 7 32 11 37 8 5 -3 17
-32 26 -63 9 -31 20 -61 25 -66 26 -28 124 322 123 439 -1 80 -25 145 -70 187
-43 41 -191 126 -246 143 -66 19 -148 25 -238 15z"/>
<path d="M3400 7554 c40 -116 187 -298 405 -504 115 -108 173 -153 370 -283
158 -104 422 -257 444 -257 34 0 -7 41 -94 93 -33 20 -108 74 -167 121 -59 47
-162 125 -230 175 -243 176 -419 345 -641 612 -45 55 -87 99 -94 99 -9 0 -7
-15 7 -56z"/>
<path d="M7285 7498 c-120 -63 -292 -240 -255 -263 18 -11 262 174 329 251 28
31 33 55 13 54 -4 0 -43 -19 -87 -42z"/>
<path d="M7603 7483 c-51 -109 -41 -284 22 -408 40 -79 163 -244 183 -245 21
0 14 18 -62 164 -112 212 -115 231 -93 510 4 52 -22 41 -50 -21z"/>
<path d="M2777 6871 c-101 -14 -99 -43 2 -47 319 -14 543 -52 900 -154 248
-71 394 -121 605 -206 174 -71 218 -92 381 -183 60 -34 113 -61 118 -61 18 0
-8 22 -96 83 -328 226 -316 219 -553 315 -82 33 -231 88 -330 121 -158 53
-207 65 -409 96 -243 38 -495 53 -618 36z"/>
<path d="M6950 6790 c-116 -24 -253 -127 -335 -249 -57 -86 -77 -134 -69 -166
13 -54 149 -155 235 -174 46 -10 49 -3 13 30 -38 34 -144 178 -144 195 0 27
152 225 199 259 55 40 149 69 194 60 104 -21 173 -60 145 -82 -7 -6 -29 -14
-48 -18 -24 -5 -54 -27 -96 -70 -80 -82 -109 -141 -109 -225 0 -87 17 -125 72
-156 63 -38 162 -32 255 14 36 17 70 32 76 32 6 0 18 -22 26 -48 21 -62 42
-92 66 -92 26 0 33 55 28 222 -3 122 -6 138 -32 193 -35 73 -187 227 -256 258
-51 23 -152 31 -220 17z"/>
<path d="M5353 6310 c-27 -11 -101 -103 -109 -137 -13 -50 18 -145 36 -111 4
7 11 30 14 51 10 51 77 120 133 134 22 6 74 8 115 5 52 -3 78 -1 83 7 11 18 3
22 -82 42 -83 20 -154 23 -190 9z"/>
<path d="M3672 6254 c-78 -7 -182 -20 -230 -29 -166 -33 -547 -171 -500 -182
9 -2 54 7 100 21 275 83 619 129 983 130 249 1 249 1 494 -65 80 -21 147 -36
150 -33 13 13 -45 48 -133 79 -110 40 -276 69 -475 85 -161 12 -202 11 -389
-6z"/>
<path d="M8266 6168 c-3 -13 -1 -122 5 -243 l11 -220 -42 -255 c-23 -140 -46
-260 -51 -267 -12 -13 -15 -13 -274 67 -345 105 -469 132 -685 149 -149 11
-459 22 -420 15 14 -3 45 -12 70 -19 55 -18 206 -44 488 -84 118 -17 243 -38
279 -46 111 -26 514 -167 520 -182 3 -8 -8 -58 -25 -111 -17 -53 -34 -114 -38
-135 -3 -20 -11 -40 -16 -43 -6 -4 -85 30 -177 74 -198 97 -656 266 -886 328
-96 25 -125 29 -125 16 0 -11 8 -15 269 -123 618 -258 833 -358 871 -403 10
-13 -4 -45 -76 -178 -48 -90 -108 -188 -133 -219 -25 -31 -73 -93 -106 -138
-146 -202 -407 -388 -714 -506 -147 -57 -427 -105 -611 -105 -44 0 -80 -4 -80
-9 0 -38 481 -52 638 -18 200 43 368 115 552 235 160 104 245 178 365 316 119
138 206 269 276 420 31 68 48 94 58 91 21 -8 237 -167 356 -262 155 -124 254
-221 396 -390 113 -133 159 -175 159 -145 0 13 -68 122 -112 181 -61 81 -319
342 -428 433 -52 44 -148 115 -212 159 -134 91 -131 86 -95 195 13 38 34 112
47 164 13 52 27 99 31 104 10 11 248 -131 509 -302 168 -110 248 -168 332
-241 21 -19 41 -31 44 -28 36 35 -327 320 -710 557 -65 41 -120 80 -123 87 -3
8 3 71 13 141 14 92 19 185 19 337 0 189 -2 219 -24 299 -27 104 -112 318
-128 323 -6 2 -13 -6 -17 -19z"/>
<path d="M5845 6150 c-10 -17 19 -64 49 -79 16 -7 74 -22 130 -33 211 -43 286
-114 286 -274 0 -63 19 -90 52 -73 31 16 48 71 48 151 0 131 -46 166 -284 218
-102 22 -155 39 -201 65 -70 39 -71 39 -80 25z"/>
<path d="M5415 6103 c-16 -3 -36 -10 -43 -16 -19 -15 -9 -70 28 -148 16 -35
34 -95 39 -132 10 -74 22 -97 84 -164 37 -40 39 -46 35 -90 -3 -27 -16 -75
-29 -108 l-24 -60 -105 -1 c-98 -1 -113 -4 -240 -49 -163 -58 -268 -69 -392
-41 -187 42 -473 241 -506 352 -7 23 -12 70 -13 105 0 35 -4 73 -8 84 -7 18
-10 17 -29 -14 -50 -83 -53 -276 -5 -348 85 -128 257 -245 426 -290 137 -36
248 -33 471 11 97 20 196 36 220 36 65 0 123 -44 208 -158 255 -343 495 -549
682 -583 80 -14 141 -4 227 39 108 55 129 87 195 305 3 9 1 17 -5 17 -5 0 -29
-36 -51 -79 -24 -45 -53 -87 -68 -97 -15 -9 -39 -27 -53 -40 -39 -37 -123 -51
-201 -35 -99 20 -148 53 -286 195 -107 110 -148 162 -255 323 -70 105 -127
196 -127 201 0 6 18 42 40 81 22 38 47 88 56 111 17 42 17 42 116 59 31 6 93
28 137 51 45 22 95 40 113 40 65 0 109 19 123 53 9 22 10 37 3 50 -14 27 -69
57 -105 57 -25 0 -33 -5 -41 -29 -21 -59 -164 -132 -258 -132 -61 0 -101 18
-139 63 -54 64 -69 113 -68 228 2 155 -16 172 -152 153z"/>
<path d="M3941 6050 c-40 -11 -106 -35 -145 -54 -80 -39 -220 -149 -195 -154
8 -1 78 27 154 63 185 88 235 104 352 111 106 7 120 4 343 -60 127 -36 160
-42 160 -28 0 11 -192 91 -275 114 -107 29 -299 33 -394 8z"/>
<path d="M6812 5703 c-32 -4 -52 -26 -37 -41 3 -4 39 -10 78 -13 40 -4 133
-14 207 -23 74 -9 194 -16 266 -16 280 0 591 35 602 69 4 11 -10 12 -79 5
-114 -12 -709 -8 -839 6 -58 6 -118 12 -135 14 -16 1 -45 1 -63 -1z"/>
<path d="M6755 5070 c-3 -5 47 -45 112 -88 143 -96 197 -144 258 -224 72 -95
118 -181 175 -326 37 -94 56 -130 63 -123 7 7 7 33 -1 86 -15 96 -42 177 -100
295 -38 78 -60 109 -126 176 -69 68 -97 88 -186 131 -134 65 -188 85 -195 73z"/>
<path d="M4687 4803 c-14 -14 -5 -34 48 -105 103 -137 210 -182 440 -182 112
-1 124 1 183 28 34 16 62 32 62 36 0 4 -87 7 -192 6 l-193 -1 -77 37 c-84 40
-164 96 -217 152 -36 37 -43 41 -54 29z"/>
<path d="M2172 4471 c-34 -27 -134 -100 -224 -161 -370 -255 -715 -567 -1014
-916 -270 -315 -477 -611 -603 -861 -63 -126 -161 -351 -193 -443 -57 -165
-129 -436 -135 -505 -5 -70 -5 -71 51 -180 85 -168 159 -241 331 -327 140 -70
268 -100 519 -119 149 -12 361 -2 361 16 0 6 -27 13 -60 17 -79 8 -424 75
-495 95 -120 34 -278 122 -368 207 -18 17 -57 72 -85 121 l-52 90 0 100 c1 98
3 105 72 305 98 284 117 330 189 452 35 59 87 154 115 210 78 156 370 565 600
840 99 119 456 480 877 889 111 107 202 201 202 207 0 23 -27 11 -88 -37z"/>
<path d="M4084 4417 c-11 -29 26 -124 70 -184 56 -74 151 -150 316 -253 115
-71 141 -83 244 -110 228 -59 479 -74 586 -34 25 9 86 31 136 49 108 38 227
102 221 118 -4 13 -9 13 -197 -2 -74 -5 -212 -10 -307 -11 -272 0 -384 30
-694 190 -176 90 -223 119 -273 168 -86 82 -94 88 -102 69z"/>
<path d="M10565 3539 c-386 -42 -538 -124 -823 -446 -104 -118 -198 -167 -369
-193 -100 -15 -103 -23 -38 -103 60 -72 80 -80 176 -68 164 21 267 90 376 251
31 46 130 144 213 211 66 54 138 86 268 122 112 31 125 32 302 31 164 0 200
-3 315 -28 191 -41 333 -84 590 -179 362 -133 532 -184 745 -223 123 -23 438
-26 463 -5 28 23 9 31 -76 31 -45 0 -111 5 -147 11 -98 15 -362 107 -572 198
-104 44 -271 117 -373 161 -217 94 -431 167 -600 205 -136 31 -302 40 -450 24z"/>
<path d="M4356 3422 c-3 -5 -10 -54 -16 -108 -40 -384 -91 -629 -181 -873 -28
-75 -63 -168 -77 -208 -15 -39 -23 -75 -19 -79 9 -9 65 44 117 111 52 67 161
282 187 370 66 215 75 467 27 705 -16 76 -27 100 -38 82z"/>
<path d="M8310 3181 c0 -20 157 -147 415 -336 332 -244 355 -262 587 -458 247
-208 347 -317 457 -495 72 -115 83 -146 84 -232 1 -164 -85 -319 -256 -455
-160 -128 -340 -236 -514 -310 -162 -68 -223 -98 -223 -108 0 -17 167 1 270
28 282 75 433 149 625 306 163 132 340 354 365 458 9 40 8 59 -5 112 -40 154
-160 348 -293 470 -95 87 -631 487 -790 589 -73 47 -221 143 -330 214 -290
190 -392 246 -392 217z"/>
<path d="M7025 3118 c-41 -204 -130 -418 -252 -608 -81 -125 -285 -322 -515
-498 -299 -227 -496 -346 -960 -578 -157 -79 -290 -149 -294 -155 -5 -9 -2
-10 12 -4 10 4 98 33 194 65 268 89 439 163 594 260 34 20 111 66 171 100 222
126 447 288 598 430 210 197 425 519 468 700 17 71 19 312 2 317 -6 2 -14 -10
-18 -29z"/>
<path d="M2928 1825 c-170 -34 -181 -48 -33 -40 203 10 556 -19 700 -57 100
-26 268 -95 341 -140 68 -40 192 -169 250 -259 97 -150 150 -436 109 -592 -34
-131 -88 -193 -231 -264 -94 -46 -100 -48 -183 -48 -52 1 -109 8 -145 19 -53
16 -68 27 -169 132 -117 122 -143 142 -159 126 -11 -11 56 -151 122 -257 22
-34 40 -69 40 -78 0 -18 -98 -80 -179 -114 -41 -16 -76 -23 -130 -23 -67 0
-83 4 -157 40 -74 36 -94 52 -200 164 -64 69 -122 122 -127 119 -20 -12 3 -82
57 -173 31 -52 56 -100 56 -107 0 -6 -24 -19 -52 -29 -71 -24 -169 -23 -228 3
-88 40 -197 135 -298 262 -18 23 -38 39 -43 36 -18 -12 -9 -52 30 -131 65
-134 155 -238 251 -290 29 -16 56 -19 160 -19 120 0 128 1 194 33 80 38 106
40 154 10 30 -19 49 -21 151 -21 182 0 276 33 381 129 l58 55 61 -21 c43 -14
86 -20 150 -20 177 0 263 34 453 180 29 23 115 184 146 275 45 134 38 232 -29
440 -44 135 -70 178 -188 307 -77 84 -166 149 -309 227 -215 117 -379 152
-705 150 -149 0 -203 -5 -299 -24z"/>
<path d="M6755 1743 c-201 -27 -409 -83 -565 -153 -47 -21 -96 -42 -110 -46
-62 -18 -286 -188 -352 -267 -54 -66 -124 -176 -168 -269 -34 -71 -41 -98 -50
-186 -5 -57 -12 -107 -14 -111 -6 -10 32 -149 50 -180 82 -143 227 -274 351
-316 38 -12 103 -28 146 -35 l77 -13 75 33 76 33 54 -39 c192 -136 251 -159
410 -158 91 0 123 5 190 27 44 15 85 27 91 27 6 0 42 -20 80 -45 62 -40 75
-45 130 -45 147 0 220 49 322 218 41 67 72 127 70 133 -2 7 -24 -7 -49 -32
-97 -95 -216 -193 -258 -211 -23 -11 -62 -20 -85 -20 -40 0 -129 33 -141 52
-4 6 9 32 28 58 42 57 111 192 98 192 -5 0 -49 -33 -98 -73 -209 -173 -272
-204 -407 -194 -100 7 -191 36 -263 84 -82 54 -82 61 -18 135 84 95 198 278
174 278 -6 0 -40 -27 -76 -59 -89 -82 -152 -130 -260 -195 -81 -50 -97 -56
-145 -56 -117 1 -207 46 -308 157 -83 91 -120 196 -120 341 0 179 55 298 209
453 130 130 204 184 346 254 176 86 298 108 676 125 333 14 409 25 409 55 0
19 -53 32 -179 45 -98 9 -332 12 -396 3z"/>
<path d="M1827 1298 c-90 -110 -191 -301 -223 -418 -13 -47 -18 -104 -18 -205
-1 -159 11 -209 69 -291 44 -61 139 -159 180 -184 51 -31 152 -53 221 -47 59
4 127 32 121 50 -1 4 -33 19 -70 32 -76 26 -149 78 -247 175 -75 74 -97 116
-131 250 -46 186 -24 331 82 550 33 68 58 125 55 127 -2 2 -20 -15 -39 -39z"/>
<path d="M8135 1200 c-4 -6 10 -50 31 -98 63 -147 74 -204 74 -392 0 -237 -26
-313 -151 -445 -121 -127 -223 -177 -369 -179 -111 -2 -114 -20 -10 -53 142
-43 340 -25 477 45 46 24 163 146 200 210 56 95 78 290 48 418 -21 89 -101
253 -184 376 -71 106 -103 139 -116 118z"/>
</g>
</svg>
